<svg width="332" height="81" viewBox="0 0 332 81" fill="none" xmlns="http://www.w3.org/2000/svg">
<rect x="0.5" y="0.5" width="331" height="80" fill="#F1EBEB" stroke="#FD8936"/>
<path d="M82.5312 45.5859C82.3203 47.3906 81.6523 48.7852 80.5273 49.7695C79.4102 50.7461 77.9219 51.2344 76.0625 51.2344C74.0469 51.2344 72.4297 50.5117 71.2109 49.0664C70 47.6211 69.3945 45.6875 69.3945 43.2656V41.625C69.3945 40.0391 69.6758 38.6445 70.2383 37.4414C70.8086 36.2383 71.6133 35.3164 72.6523 34.6758C73.6914 34.0273 74.8945 33.7031 76.2617 33.7031C78.0742 33.7031 79.5273 34.2109 80.6211 35.2266C81.7148 36.2344 82.3516 37.6328 82.5312 39.4219H80.2695C80.0742 38.0625 79.6484 37.0781 78.9922 36.4688C78.3438 35.8594 77.4336 35.5547 76.2617 35.5547C74.8242 35.5547 73.6953 36.0859 72.875 37.1484C72.0625 38.2109 71.6562 39.7227 71.6562 41.6836V43.3359C71.6562 45.1875 72.043 46.6602 72.8164 47.7539C73.5898 48.8477 74.6719 49.3945 76.0625 49.3945C77.3125 49.3945 78.2695 49.1133 78.9336 48.5508C79.6055 47.9805 80.0508 46.9922 80.2695 45.5859H82.5312ZM87.4414 39.8555C88.4023 38.6758 89.6523 38.0859 91.1914 38.0859C93.8711 38.0859 95.2227 39.5977 95.2461 42.6211V51H93.0781V42.6094C93.0703 41.6953 92.8594 41.0195 92.4453 40.582C92.0391 40.1445 91.4023 39.9258 90.5352 39.9258C89.832 39.9258 89.2148 40.1133 88.6836 40.4883C88.1523 40.8633 87.7383 41.3555 87.4414 41.9648V51H85.2734V33H87.4414V39.8555ZM106.32 51C106.195 50.75 106.094 50.3047 106.016 49.6641C105.008 50.7109 103.805 51.2344 102.406 51.2344C101.156 51.2344 100.129 50.8828 99.3242 50.1797C98.5273 49.4688 98.1289 48.5703 98.1289 47.4844C98.1289 46.1641 98.6289 45.1406 99.6289 44.4141C100.637 43.6797 102.051 43.3125 103.871 43.3125H105.98V42.3164C105.98 41.5586 105.754 40.957 105.301 40.5117C104.848 40.0586 104.18 39.832 103.297 39.832C102.523 39.832 101.875 40.0273 101.352 40.418C100.828 40.8086 100.566 41.2812 100.566 41.8359H98.3867C98.3867 41.2031 98.6094 40.5938 99.0547 40.0078C99.5078 39.4141 100.117 38.9453 100.883 38.6016C101.656 38.2578 102.504 38.0859 103.426 38.0859C104.887 38.0859 106.031 38.4531 106.859 39.1875C107.688 39.9141 108.117 40.918 108.148 42.1992V48.0352C108.148 49.1992 108.297 50.125 108.594 50.8125V51H106.32ZM102.723 49.3477C103.402 49.3477 104.047 49.1719 104.656 48.8203C105.266 48.4688 105.707 48.0117 105.98 47.4492V44.8477H104.281C101.625 44.8477 100.297 45.625 100.297 47.1797C100.297 47.8594 100.523 48.3906 100.977 48.7734C101.43 49.1562 102.012 49.3477 102.723 49.3477ZM119.375 49.7461C118.531 50.7383 117.293 51.2344 115.66 51.2344C114.309 51.2344 113.277 50.8438 112.566 50.0625C111.863 49.2734 111.508 48.1094 111.5 46.5703V38.3203H113.668V46.5117C113.668 48.4336 114.449 49.3945 116.012 49.3945C117.668 49.3945 118.77 48.7773 119.316 47.543V38.3203H121.484V51H119.422L119.375 49.7461ZM126.84 38.3203L126.91 39.9141C127.879 38.6953 129.145 38.0859 130.707 38.0859C133.387 38.0859 134.738 39.5977 134.762 42.6211V51H132.594V42.6094C132.586 41.6953 132.375 41.0195 131.961 40.582C131.555 40.1445 130.918 39.9258 130.051 39.9258C129.348 39.9258 128.73 40.1133 128.199 40.4883C127.668 40.8633 127.254 41.3555 126.957 41.9648V51H124.789V38.3203H126.84ZM137.516 44.5547C137.516 42.5781 137.973 41.0078 138.887 39.8438C139.801 38.6719 141.012 38.0859 142.52 38.0859C144.066 38.0859 145.273 38.6328 146.141 39.7266L146.246 38.3203H148.227V50.6953C148.227 52.3359 147.738 53.6289 146.762 54.5742C145.793 55.5195 144.488 55.9922 142.848 55.9922C141.934 55.9922 141.039 55.7969 140.164 55.4062C139.289 55.0156 138.621 54.4805 138.16 53.8008L139.285 52.5C140.215 53.6484 141.352 54.2227 142.695 54.2227C143.75 54.2227 144.57 53.9258 145.156 53.332C145.75 52.7383 146.047 51.9023 146.047 50.8242V49.7344C145.18 50.7344 143.996 51.2344 142.496 51.2344C141.012 51.2344 139.809 50.6367 138.887 49.4414C137.973 48.2461 137.516 46.6172 137.516 44.5547ZM139.695 44.8008C139.695 46.2305 139.988 47.3555 140.574 48.1758C141.16 48.9883 141.98 49.3945 143.035 49.3945C144.402 49.3945 145.406 48.7734 146.047 47.5312V41.7422C145.383 40.5312 144.387 39.9258 143.059 39.9258C142.004 39.9258 141.18 40.3359 140.586 41.1562C139.992 41.9766 139.695 43.1914 139.695 44.8008ZM170.914 51H168.652V43.1133H160.051V51H157.801V33.9375H160.051V41.2734H168.652V33.9375H170.914V51ZM179.832 51.2344C178.113 51.2344 176.715 50.6719 175.637 49.5469C174.559 48.4141 174.02 46.9023 174.02 45.0117V44.6133C174.02 43.3555 174.258 42.2344 174.734 41.25C175.219 40.2578 175.891 39.4844 176.75 38.9297C177.617 38.3672 178.555 38.0859 179.562 38.0859C181.211 38.0859 182.492 38.6289 183.406 39.7148C184.32 40.8008 184.777 42.3555 184.777 44.3789V45.2812H176.188C176.219 46.5312 176.582 47.543 177.277 48.3164C177.98 49.082 178.871 49.4648 179.949 49.4648C180.715 49.4648 181.363 49.3086 181.895 48.9961C182.426 48.6836 182.891 48.2695 183.289 47.7539L184.613 48.7852C183.551 50.418 181.957 51.2344 179.832 51.2344ZM179.562 39.8672C178.688 39.8672 177.953 40.1875 177.359 40.8281C176.766 41.4609 176.398 42.3516 176.258 43.5H182.609V43.3359C182.547 42.2344 182.25 41.3828 181.719 40.7812C181.188 40.1719 180.469 39.8672 179.562 39.8672ZM192.559 51.2344C190.84 51.2344 189.441 50.6719 188.363 49.5469C187.285 48.4141 186.746 46.9023 186.746 45.0117V44.6133C186.746 43.3555 186.984 42.2344 187.461 41.25C187.945 40.2578 188.617 39.4844 189.477 38.9297C190.344 38.3672 191.281 38.0859 192.289 38.0859C193.938 38.0859 195.219 38.6289 196.133 39.7148C197.047 40.8008 197.504 42.3555 197.504 44.3789V45.2812H188.914C188.945 46.5312 189.309 47.543 190.004 48.3164C190.707 49.082 191.598 49.4648 192.676 49.4648C193.441 49.4648 194.09 49.3086 194.621 48.9961C195.152 48.6836 195.617 48.2695 196.016 47.7539L197.34 48.7852C196.277 50.418 194.684 51.2344 192.559 51.2344ZM192.289 39.8672C191.414 39.8672 190.68 40.1875 190.086 40.8281C189.492 41.4609 189.125 42.3516 188.984 43.5H195.336V43.3359C195.273 42.2344 194.977 41.3828 194.445 40.7812C193.914 40.1719 193.195 39.8672 192.289 39.8672Z" fill="black"/>
<path d="M22.0879 41.542C22.0879 43.4463 21.7627 44.8613 21.1123 45.7871C20.4619 46.7129 19.4453 47.1758 18.0625 47.1758C16.6973 47.1758 15.6865 46.7246 15.0303 45.8223C14.374 44.9141 14.0342 43.5605 14.0107 41.7617V39.5908C14.0107 37.71 14.3359 36.3125 14.9863 35.3984C15.6367 34.4844 16.6562 34.0273 18.0449 34.0273C19.4219 34.0273 20.4355 34.4697 21.0859 35.3545C21.7363 36.2334 22.0703 37.5928 22.0879 39.4326V41.542ZM20.4619 39.3184C20.4619 37.9414 20.2686 36.9395 19.8818 36.3125C19.4951 35.6797 18.8828 35.3633 18.0449 35.3633C17.2129 35.3633 16.6064 35.6768 16.2256 36.3037C15.8447 36.9307 15.6484 37.8945 15.6367 39.1953V41.7969C15.6367 43.1797 15.8359 44.2021 16.2344 44.8643C16.6387 45.5205 17.248 45.8486 18.0625 45.8486C18.8652 45.8486 19.46 45.5381 19.8467 44.917C20.2393 44.2959 20.4443 43.3174 20.4619 41.9814V39.3184ZM29.5146 47H27.8799V36.1631L24.6016 37.3672V35.8906L29.2598 34.1416H29.5146V47ZM42.0391 37.543C42.0391 38.1816 41.8691 38.75 41.5293 39.248C41.1953 39.7461 40.7412 40.1357 40.167 40.417C40.835 40.7041 41.3623 41.123 41.749 41.6738C42.1416 42.2246 42.3379 42.8486 42.3379 43.5459C42.3379 44.6533 41.9629 45.5352 41.2129 46.1914C40.4688 46.8477 39.4873 47.1758 38.2686 47.1758C37.0381 47.1758 36.0508 46.8477 35.3066 46.1914C34.5684 45.5293 34.1992 44.6475 34.1992 43.5459C34.1992 42.8545 34.3867 42.2305 34.7617 41.6738C35.1426 41.1172 35.667 40.6953 36.335 40.4082C35.7666 40.127 35.3184 39.7373 34.9902 39.2393C34.6621 38.7412 34.498 38.1758 34.498 37.543C34.498 36.4648 34.8438 35.6094 35.5352 34.9766C36.2266 34.3438 37.1377 34.0273 38.2686 34.0273C39.3936 34.0273 40.3018 34.3438 40.9932 34.9766C41.6904 35.6094 42.0391 36.4648 42.0391 37.543ZM40.7119 43.5107C40.7119 42.7959 40.4834 42.2129 40.0264 41.7617C39.5752 41.3105 38.9834 41.085 38.251 41.085C37.5186 41.085 36.9297 41.3076 36.4844 41.7529C36.0449 42.1982 35.8252 42.7842 35.8252 43.5107C35.8252 44.2373 36.0391 44.8086 36.4668 45.2246C36.9004 45.6406 37.501 45.8486 38.2686 45.8486C39.0303 45.8486 39.6279 45.6406 40.0615 45.2246C40.4951 44.8027 40.7119 44.2314 40.7119 43.5107ZM38.2686 35.3633C37.6299 35.3633 37.1113 35.5625 36.7129 35.9609C36.3203 36.3535 36.124 36.8896 36.124 37.5693C36.124 38.2197 36.3174 38.7471 36.7041 39.1514C37.0967 39.5498 37.6182 39.749 38.2686 39.749C38.9189 39.749 39.4375 39.5498 39.8242 39.1514C40.2168 38.7471 40.4131 38.2197 40.4131 37.5693C40.4131 36.9189 40.2109 36.3887 39.8066 35.9785C39.4023 35.5684 38.8896 35.3633 38.2686 35.3633Z" fill="black"/>
<path d="M27.5 73L40.9234 55.75H14.0766L27.5 73Z" fill="#FD8936"/>
<path d="M28 7L40.9904 24.25H15.0096L28 7Z" fill="#495BFF"/>
</svg>
