<svg width="332" height="81" viewBox="0 0 332 81" fill="none" xmlns="http://www.w3.org/2000/svg">
<rect x="0.5" y="0.5" width="331" height="80" fill="#F1EBEB" stroke="#FD8936"/>
<path d="M79.3906 43.4648H72.2305V51H69.9805V33.9375H80.5508V35.7891H72.2305V41.625H79.3906V43.4648ZM88.7305 40.2656C88.4023 40.2109 88.0469 40.1836 87.6641 40.1836C86.2422 40.1836 85.2773 40.7891 84.7695 42V51H82.6016V38.3203H84.7109L84.7461 39.7852C85.457 38.6523 86.4648 38.0859 87.7695 38.0859C88.1914 38.0859 88.5117 38.1406 88.7305 38.25V40.2656ZM98.0938 51C97.9688 50.75 97.8672 50.3047 97.7891 49.6641C96.7812 50.7109 95.5781 51.2344 94.1797 51.2344C92.9297 51.2344 91.9023 50.8828 91.0977 50.1797C90.3008 49.4688 89.9023 48.5703 89.9023 47.4844C89.9023 46.1641 90.4023 45.1406 91.4023 44.4141C92.4102 43.6797 93.8242 43.3125 95.6445 43.3125H97.7539V42.3164C97.7539 41.5586 97.5273 40.957 97.0742 40.5117C96.6211 40.0586 95.9531 39.832 95.0703 39.832C94.2969 39.832 93.6484 40.0273 93.125 40.418C92.6016 40.8086 92.3398 41.2812 92.3398 41.8359H90.1602C90.1602 41.2031 90.3828 40.5938 90.8281 40.0078C91.2812 39.4141 91.8906 38.9453 92.6562 38.6016C93.4297 38.2578 94.2773 38.0859 95.1992 38.0859C96.6602 38.0859 97.8047 38.4531 98.6328 39.1875C99.4609 39.9141 99.8906 40.918 99.9219 42.1992V48.0352C99.9219 49.1992 100.07 50.125 100.367 50.8125V51H98.0938ZM94.4961 49.3477C95.1758 49.3477 95.8203 49.1719 96.4297 48.8203C97.0391 48.4688 97.4805 48.0117 97.7539 47.4492V44.8477H96.0547C93.3984 44.8477 92.0703 45.625 92.0703 47.1797C92.0703 47.8594 92.2969 48.3906 92.75 48.7734C93.2031 49.1562 93.7852 49.3477 94.4961 49.3477ZM105.371 38.3203L105.441 39.9141C106.41 38.6953 107.676 38.0859 109.238 38.0859C111.918 38.0859 113.27 39.5977 113.293 42.6211V51H111.125V42.6094C111.117 41.6953 110.906 41.0195 110.492 40.582C110.086 40.1445 109.449 39.9258 108.582 39.9258C107.879 39.9258 107.262 40.1133 106.73 40.4883C106.199 40.8633 105.785 41.3555 105.488 41.9648V51H103.32V38.3203H105.371ZM121.648 49.4648C122.422 49.4648 123.098 49.2305 123.676 48.7617C124.254 48.293 124.574 47.707 124.637 47.0039H126.688C126.648 47.7305 126.398 48.4219 125.938 49.0781C125.477 49.7344 124.859 50.2578 124.086 50.6484C123.32 51.0391 122.508 51.2344 121.648 51.2344C119.922 51.2344 118.547 50.6602 117.523 49.5117C116.508 48.3555 116 46.7773 116 44.7773V44.4141C116 43.1797 116.227 42.082 116.68 41.1211C117.133 40.1602 117.781 39.4141 118.625 38.8828C119.477 38.3516 120.48 38.0859 121.637 38.0859C123.059 38.0859 124.238 38.5117 125.176 39.3633C126.121 40.2148 126.625 41.3203 126.688 42.6797H124.637C124.574 41.8594 124.262 41.1875 123.699 40.6641C123.145 40.1328 122.457 39.8672 121.637 39.8672C120.535 39.8672 119.68 40.2656 119.07 41.0625C118.469 41.8516 118.168 42.9961 118.168 44.4961V44.9062C118.168 46.3672 118.469 47.4922 119.07 48.2812C119.672 49.0703 120.531 49.4648 121.648 49.4648ZM131.48 51H129.312V38.3203H131.48V51ZM129.137 34.957C129.137 34.6055 129.242 34.3086 129.453 34.0664C129.672 33.8242 129.992 33.7031 130.414 33.7031C130.836 33.7031 131.156 33.8242 131.375 34.0664C131.594 34.3086 131.703 34.6055 131.703 34.957C131.703 35.3086 131.594 35.6016 131.375 35.8359C131.156 36.0703 130.836 36.1875 130.414 36.1875C129.992 36.1875 129.672 36.0703 129.453 35.8359C129.242 35.6016 129.137 35.3086 129.137 34.957ZM142.344 47.6367C142.344 47.0508 142.121 46.5977 141.676 46.2773C141.238 45.9492 140.469 45.668 139.367 45.4336C138.273 45.1992 137.402 44.918 136.754 44.5898C136.113 44.2617 135.637 43.8711 135.324 43.418C135.02 42.9648 134.867 42.4258 134.867 41.8008C134.867 40.7617 135.305 39.8828 136.18 39.1641C137.062 38.4453 138.188 38.0859 139.555 38.0859C140.992 38.0859 142.156 38.457 143.047 39.1992C143.945 39.9414 144.395 40.8906 144.395 42.0469H142.215C142.215 41.4531 141.961 40.9414 141.453 40.5117C140.953 40.082 140.32 39.8672 139.555 39.8672C138.766 39.8672 138.148 40.0391 137.703 40.3828C137.258 40.7266 137.035 41.1758 137.035 41.7305C137.035 42.2539 137.242 42.6484 137.656 42.9141C138.07 43.1797 138.816 43.4336 139.895 43.6758C140.98 43.918 141.859 44.207 142.531 44.543C143.203 44.8789 143.699 45.2852 144.02 45.7617C144.348 46.2305 144.512 46.8047 144.512 47.4844C144.512 48.6172 144.059 49.5273 143.152 50.2148C142.246 50.8945 141.07 51.2344 139.625 51.2344C138.609 51.2344 137.711 51.0547 136.93 50.6953C136.148 50.3359 135.535 49.8359 135.09 49.1953C134.652 48.5469 134.434 47.8477 134.434 47.0977H136.602C136.641 47.8242 136.93 48.4023 137.469 48.832C138.016 49.2539 138.734 49.4648 139.625 49.4648C140.445 49.4648 141.102 49.3008 141.594 48.9727C142.094 48.6367 142.344 48.1914 142.344 47.6367ZM166.742 51H164.48L155.891 37.8516V51H153.629V33.9375H155.891L164.504 47.1445V33.9375H166.742V51ZM169.883 44.5547C169.883 42.5781 170.34 41.0078 171.254 39.8438C172.168 38.6719 173.379 38.0859 174.887 38.0859C176.434 38.0859 177.641 38.6328 178.508 39.7266L178.613 38.3203H180.594V50.6953C180.594 52.3359 180.105 53.6289 179.129 54.5742C178.16 55.5195 176.855 55.9922 175.215 55.9922C174.301 55.9922 173.406 55.7969 172.531 55.4062C171.656 55.0156 170.988 54.4805 170.527 53.8008L171.652 52.5C172.582 53.6484 173.719 54.2227 175.062 54.2227C176.117 54.2227 176.938 53.9258 177.523 53.332C178.117 52.7383 178.414 51.9023 178.414 50.8242V49.7344C177.547 50.7344 176.363 51.2344 174.863 51.2344C173.379 51.2344 172.176 50.6367 171.254 49.4414C170.34 48.2461 169.883 46.6172 169.883 44.5547ZM172.062 44.8008C172.062 46.2305 172.355 47.3555 172.941 48.1758C173.527 48.9883 174.348 49.3945 175.402 49.3945C176.77 49.3945 177.773 48.7734 178.414 47.5312V41.7422C177.75 40.5312 176.754 39.9258 175.426 39.9258C174.371 39.9258 173.547 40.3359 172.953 41.1562C172.359 41.9766 172.062 43.1914 172.062 44.8008ZM191.703 51C191.578 50.75 191.477 50.3047 191.398 49.6641C190.391 50.7109 189.188 51.2344 187.789 51.2344C186.539 51.2344 185.512 50.8828 184.707 50.1797C183.91 49.4688 183.512 48.5703 183.512 47.4844C183.512 46.1641 184.012 45.1406 185.012 44.4141C186.02 43.6797 187.434 43.3125 189.254 43.3125H191.363V42.3164C191.363 41.5586 191.137 40.957 190.684 40.5117C190.23 40.0586 189.562 39.832 188.68 39.832C187.906 39.832 187.258 40.0273 186.734 40.418C186.211 40.8086 185.949 41.2812 185.949 41.8359H183.77C183.77 41.2031 183.992 40.5938 184.438 40.0078C184.891 39.4141 185.5 38.9453 186.266 38.6016C187.039 38.2578 187.887 38.0859 188.809 38.0859C190.27 38.0859 191.414 38.4531 192.242 39.1875C193.07 39.9141 193.5 40.918 193.531 42.1992V48.0352C193.531 49.1992 193.68 50.125 193.977 50.8125V51H191.703ZM188.105 49.3477C188.785 49.3477 189.43 49.1719 190.039 48.8203C190.648 48.4688 191.09 48.0117 191.363 47.4492V44.8477H189.664C187.008 44.8477 185.68 45.625 185.68 47.1797C185.68 47.8594 185.906 48.3906 186.359 48.7734C186.812 49.1562 187.395 49.3477 188.105 49.3477ZM198.98 38.3203L199.051 39.9141C200.02 38.6953 201.285 38.0859 202.848 38.0859C205.527 38.0859 206.879 39.5977 206.902 42.6211V51H204.734V42.6094C204.727 41.6953 204.516 41.0195 204.102 40.582C203.695 40.1445 203.059 39.9258 202.191 39.9258C201.488 39.9258 200.871 40.1133 200.34 40.4883C199.809 40.8633 199.395 41.3555 199.098 41.9648V51H196.93V38.3203H198.98ZM212.223 38.3203L212.293 39.9141C213.262 38.6953 214.527 38.0859 216.09 38.0859C218.77 38.0859 220.121 39.5977 220.145 42.6211V51H217.977V42.6094C217.969 41.6953 217.758 41.0195 217.344 40.582C216.938 40.1445 216.301 39.9258 215.434 39.9258C214.73 39.9258 214.113 40.1133 213.582 40.4883C213.051 40.8633 212.637 41.3555 212.34 41.9648V51H210.172V38.3203H212.223ZM222.84 44.543C222.84 43.3008 223.082 42.1836 223.566 41.1914C224.059 40.1992 224.738 39.4336 225.605 38.8945C226.48 38.3555 227.477 38.0859 228.594 38.0859C230.32 38.0859 231.715 38.6836 232.777 39.8789C233.848 41.0742 234.383 42.6641 234.383 44.6484V44.8008C234.383 46.0352 234.145 47.1445 233.668 48.1289C233.199 49.1055 232.523 49.8672 231.641 50.4141C230.766 50.9609 229.758 51.2344 228.617 51.2344C226.898 51.2344 225.504 50.6367 224.434 49.4414C223.371 48.2461 222.84 46.6641 222.84 44.6953V44.543ZM225.02 44.8008C225.02 46.207 225.344 47.3359 225.992 48.1875C226.648 49.0391 227.523 49.4648 228.617 49.4648C229.719 49.4648 230.594 49.0352 231.242 48.1758C231.891 47.3086 232.215 46.0977 232.215 44.543C232.215 43.1523 231.883 42.0273 231.219 41.168C230.562 40.3008 229.688 39.8672 228.594 39.8672C227.523 39.8672 226.66 40.293 226.004 41.1445C225.348 41.9961 225.02 43.2148 225.02 44.8008ZM244.93 49.7461C244.086 50.7383 242.848 51.2344 241.215 51.2344C239.863 51.2344 238.832 50.8438 238.121 50.0625C237.418 49.2734 237.062 48.1094 237.055 46.5703V38.3203H239.223V46.5117C239.223 48.4336 240.004 49.3945 241.566 49.3945C243.223 49.3945 244.324 48.7773 244.871 47.543V38.3203H247.039V51H244.977L244.93 49.7461Z" fill="black"/>
<path d="M22.0879 41.542C22.0879 43.4463 21.7627 44.8613 21.1123 45.7871C20.4619 46.7129 19.4453 47.1758 18.0625 47.1758C16.6973 47.1758 15.6865 46.7246 15.0303 45.8223C14.374 44.9141 14.0342 43.5605 14.0107 41.7617V39.5908C14.0107 37.71 14.3359 36.3125 14.9863 35.3984C15.6367 34.4844 16.6562 34.0273 18.0449 34.0273C19.4219 34.0273 20.4355 34.4697 21.0859 35.3545C21.7363 36.2334 22.0703 37.5928 22.0879 39.4326V41.542ZM20.4619 39.3184C20.4619 37.9414 20.2686 36.9395 19.8818 36.3125C19.4951 35.6797 18.8828 35.3633 18.0449 35.3633C17.2129 35.3633 16.6064 35.6768 16.2256 36.3037C15.8447 36.9307 15.6484 37.8945 15.6367 39.1953V41.7969C15.6367 43.1797 15.8359 44.2021 16.2344 44.8643C16.6387 45.5205 17.248 45.8486 18.0625 45.8486C18.8652 45.8486 19.46 45.5381 19.8467 44.917C20.2393 44.2959 20.4443 43.3174 20.4619 41.9814V39.3184ZM32.1953 41.542C32.1953 43.4463 31.8701 44.8613 31.2197 45.7871C30.5693 46.7129 29.5527 47.1758 28.1699 47.1758C26.8047 47.1758 25.7939 46.7246 25.1377 45.8223C24.4814 44.9141 24.1416 43.5605 24.1182 41.7617V39.5908C24.1182 37.71 24.4434 36.3125 25.0938 35.3984C25.7441 34.4844 26.7637 34.0273 28.1523 34.0273C29.5293 34.0273 30.543 34.4697 31.1934 35.3545C31.8438 36.2334 32.1777 37.5928 32.1953 39.4326V41.542ZM30.5693 39.3184C30.5693 37.9414 30.376 36.9395 29.9893 36.3125C29.6025 35.6797 28.9902 35.3633 28.1523 35.3633C27.3203 35.3633 26.7139 35.6768 26.333 36.3037C25.9521 36.9307 25.7559 37.8945 25.7441 39.1953V41.7969C25.7441 43.1797 25.9434 44.2021 26.3418 44.8643C26.7461 45.5205 27.3555 45.8486 28.1699 45.8486C28.9727 45.8486 29.5674 45.5381 29.9541 44.917C30.3467 44.2959 30.5518 43.3174 30.5693 41.9814V39.3184ZM39.6221 47H37.9873V36.1631L34.709 37.3672V35.8906L39.3672 34.1416H39.6221V47Z" fill="black"/>
<path d="M27.5 73L40.9234 55.75H14.0766L27.5 73Z" fill="#FD8936"/>
<path d="M28 7L40.9904 24.25H15.0096L28 7Z" fill="#495BFF"/>
</svg>
