<svg width="332" height="81" viewBox="0 0 332 81" fill="none" xmlns="http://www.w3.org/2000/svg">
<rect x="0.5" y="0.5" width="331" height="80" fill="#F1EBEB" stroke="#FD8936"/>
<path d="M77.1289 33.9375H79.3906V46.0195C79.3906 47.6523 78.8984 48.9297 77.9141 49.8516C76.9375 50.7734 75.6328 51.2344 74 51.2344C72.3047 51.2344 70.9844 50.8008 70.0391 49.9336C69.0938 49.0664 68.6211 47.8516 68.6211 46.2891H70.8711C70.8711 47.2656 71.1367 48.0273 71.668 48.5742C72.207 49.1211 72.9844 49.3945 74 49.3945C74.9297 49.3945 75.6797 49.1016 76.25 48.5156C76.8281 47.9297 77.1211 47.1094 77.1289 46.0547V33.9375ZM82.3086 44.543C82.3086 43.3008 82.5508 42.1836 83.0352 41.1914C83.5273 40.1992 84.207 39.4336 85.0742 38.8945C85.9492 38.3555 86.9453 38.0859 88.0625 38.0859C89.7891 38.0859 91.1836 38.6836 92.2461 39.8789C93.3164 41.0742 93.8516 42.6641 93.8516 44.6484V44.8008C93.8516 46.0352 93.6133 47.1445 93.1367 48.1289C92.668 49.1055 91.9922 49.8672 91.1094 50.4141C90.2344 50.9609 89.2266 51.2344 88.0859 51.2344C86.3672 51.2344 84.9727 50.6367 83.9023 49.4414C82.8398 48.2461 82.3086 46.6641 82.3086 44.6953V44.543ZM84.4883 44.8008C84.4883 46.207 84.8125 47.3359 85.4609 48.1875C86.1172 49.0391 86.9922 49.4648 88.0859 49.4648C89.1875 49.4648 90.0625 49.0352 90.7109 48.1758C91.3594 47.3086 91.6836 46.0977 91.6836 44.543C91.6836 43.1523 91.3516 42.0273 90.6875 41.168C90.0312 40.3008 89.1562 39.8672 88.0625 39.8672C86.9922 39.8672 86.1289 40.293 85.4727 41.1445C84.8164 41.9961 84.4883 43.2148 84.4883 44.8008ZM98.7383 39.8555C99.6992 38.6758 100.949 38.0859 102.488 38.0859C105.168 38.0859 106.52 39.5977 106.543 42.6211V51H104.375V42.6094C104.367 41.6953 104.156 41.0195 103.742 40.582C103.336 40.1445 102.699 39.9258 101.832 39.9258C101.129 39.9258 100.512 40.1133 99.9805 40.4883C99.4492 40.8633 99.0352 41.3555 98.7383 41.9648V51H96.5703V33H98.7383V39.8555ZM111.84 38.3203L111.91 39.9141C112.879 38.6953 114.145 38.0859 115.707 38.0859C118.387 38.0859 119.738 39.5977 119.762 42.6211V51H117.594V42.6094C117.586 41.6953 117.375 41.0195 116.961 40.582C116.555 40.1445 115.918 39.9258 115.051 39.9258C114.348 39.9258 113.73 40.1133 113.199 40.4883C112.668 40.8633 112.254 41.3555 111.957 41.9648V51H109.789V38.3203H111.84ZM129.324 51V33.9375H134.141C135.625 33.9375 136.938 34.2656 138.078 34.9219C139.219 35.5781 140.098 36.5117 140.715 37.7227C141.34 38.9336 141.656 40.3242 141.664 41.8945V42.9844C141.664 44.5938 141.352 46.0039 140.727 47.2148C140.109 48.4258 139.223 49.3555 138.066 50.0039C136.918 50.6523 135.578 50.9844 134.047 51H129.324ZM131.574 35.7891V49.1602H133.941C135.676 49.1602 137.023 48.6211 137.984 47.543C138.953 46.4648 139.438 44.9297 139.438 42.9375V41.9414C139.438 40.0039 138.98 38.5 138.066 37.4297C137.16 36.3516 135.871 35.8047 134.199 35.7891H131.574ZM157.285 44.0977H153.277V51H151.016V33.9375H156.664C158.586 33.9375 160.062 34.375 161.094 35.25C162.133 36.125 162.652 37.3984 162.652 39.0703C162.652 40.1328 162.363 41.0586 161.785 41.8477C161.215 42.6367 160.418 43.2266 159.395 43.6172L163.402 50.8594V51H160.988L157.285 44.0977ZM153.277 42.2578H156.734C157.852 42.2578 158.738 41.9688 159.395 41.3906C160.059 40.8125 160.391 40.0391 160.391 39.0703C160.391 38.0156 160.074 37.207 159.441 36.6445C158.816 36.082 157.91 35.7969 156.723 35.7891H153.277V42.2578ZM164.902 44.543C164.902 43.3008 165.145 42.1836 165.629 41.1914C166.121 40.1992 166.801 39.4336 167.668 38.8945C168.543 38.3555 169.539 38.0859 170.656 38.0859C172.383 38.0859 173.777 38.6836 174.84 39.8789C175.91 41.0742 176.445 42.6641 176.445 44.6484V44.8008C176.445 46.0352 176.207 47.1445 175.73 48.1289C175.262 49.1055 174.586 49.8672 173.703 50.4141C172.828 50.9609 171.82 51.2344 170.68 51.2344C168.961 51.2344 167.566 50.6367 166.496 49.4414C165.434 48.2461 164.902 46.6641 164.902 44.6953V44.543ZM167.082 44.8008C167.082 46.207 167.406 47.3359 168.055 48.1875C168.711 49.0391 169.586 49.4648 170.68 49.4648C171.781 49.4648 172.656 49.0352 173.305 48.1758C173.953 47.3086 174.277 46.0977 174.277 44.543C174.277 43.1523 173.945 42.0273 173.281 41.168C172.625 40.3008 171.75 39.8672 170.656 39.8672C169.586 39.8672 168.723 40.293 168.066 41.1445C167.41 41.9961 167.082 43.2148 167.082 44.8008ZM184.25 49.4648C185.023 49.4648 185.699 49.2305 186.277 48.7617C186.855 48.293 187.176 47.707 187.238 47.0039H189.289C189.25 47.7305 189 48.4219 188.539 49.0781C188.078 49.7344 187.461 50.2578 186.688 50.6484C185.922 51.0391 185.109 51.2344 184.25 51.2344C182.523 51.2344 181.148 50.6602 180.125 49.5117C179.109 48.3555 178.602 46.7773 178.602 44.7773V44.4141C178.602 43.1797 178.828 42.082 179.281 41.1211C179.734 40.1602 180.383 39.4141 181.227 38.8828C182.078 38.3516 183.082 38.0859 184.238 38.0859C185.66 38.0859 186.84 38.5117 187.777 39.3633C188.723 40.2148 189.227 41.3203 189.289 42.6797H187.238C187.176 41.8594 186.863 41.1875 186.301 40.6641C185.746 40.1328 185.059 39.8672 184.238 39.8672C183.137 39.8672 182.281 40.2656 181.672 41.0625C181.07 41.8516 180.77 42.9961 180.77 44.4961V44.9062C180.77 46.3672 181.07 47.4922 181.672 48.2812C182.273 49.0703 183.133 49.4648 184.25 49.4648ZM195.266 45.1289L193.906 46.5469V51H191.738V33H193.906V43.8867L195.066 42.4922L199.016 38.3203H201.652L196.719 43.6172L202.227 51H199.684L195.266 45.1289ZM208.918 51.2344C207.199 51.2344 205.801 50.6719 204.723 49.5469C203.645 48.4141 203.105 46.9023 203.105 45.0117V44.6133C203.105 43.3555 203.344 42.2344 203.82 41.25C204.305 40.2578 204.977 39.4844 205.836 38.9297C206.703 38.3672 207.641 38.0859 208.648 38.0859C210.297 38.0859 211.578 38.6289 212.492 39.7148C213.406 40.8008 213.863 42.3555 213.863 44.3789V45.2812H205.273C205.305 46.5312 205.668 47.543 206.363 48.3164C207.066 49.082 207.957 49.4648 209.035 49.4648C209.801 49.4648 210.449 49.3086 210.98 48.9961C211.512 48.6836 211.977 48.2695 212.375 47.7539L213.699 48.7852C212.637 50.418 211.043 51.2344 208.918 51.2344ZM208.648 39.8672C207.773 39.8672 207.039 40.1875 206.445 40.8281C205.852 41.4609 205.484 42.3516 205.344 43.5H211.695V43.3359C211.633 42.2344 211.336 41.3828 210.805 40.7812C210.273 40.1719 209.555 39.8672 208.648 39.8672ZM222.512 40.2656C222.184 40.2109 221.828 40.1836 221.445 40.1836C220.023 40.1836 219.059 40.7891 218.551 42V51H216.383V38.3203H218.492L218.527 39.7852C219.238 38.6523 220.246 38.0859 221.551 38.0859C221.973 38.0859 222.293 38.1406 222.512 38.25V40.2656ZM225.77 51V39.9961H223.766V38.3203H225.77V37.0195C225.77 35.6602 226.133 34.6094 226.859 33.8672C227.586 33.125 228.613 32.7539 229.941 32.7539C230.441 32.7539 230.938 32.8203 231.43 32.9531L231.312 34.7109C230.945 34.6406 230.555 34.6055 230.141 34.6055C229.438 34.6055 228.895 34.8125 228.512 35.2266C228.129 35.6328 227.938 36.2188 227.938 36.9844V38.3203H230.645V39.9961H227.938V51H225.77ZM238.027 51.2344C236.309 51.2344 234.91 50.6719 233.832 49.5469C232.754 48.4141 232.215 46.9023 232.215 45.0117V44.6133C232.215 43.3555 232.453 42.2344 232.93 41.25C233.414 40.2578 234.086 39.4844 234.945 38.9297C235.812 38.3672 236.75 38.0859 237.758 38.0859C239.406 38.0859 240.688 38.6289 241.602 39.7148C242.516 40.8008 242.973 42.3555 242.973 44.3789V45.2812H234.383C234.414 46.5312 234.777 47.543 235.473 48.3164C236.176 49.082 237.066 49.4648 238.145 49.4648C238.91 49.4648 239.559 49.3086 240.09 48.9961C240.621 48.6836 241.086 48.2695 241.484 47.7539L242.809 48.7852C241.746 50.418 240.152 51.2344 238.027 51.2344ZM237.758 39.8672C236.883 39.8672 236.148 40.1875 235.555 40.8281C234.961 41.4609 234.594 42.3516 234.453 43.5H240.805V43.3359C240.742 42.2344 240.445 41.3828 239.914 40.7812C239.383 40.1719 238.664 39.8672 237.758 39.8672ZM247.848 51H245.68V33H247.848V51ZM253.684 51H251.516V33H253.684V51ZM262.426 51.2344C260.707 51.2344 259.309 50.6719 258.23 49.5469C257.152 48.4141 256.613 46.9023 256.613 45.0117V44.6133C256.613 43.3555 256.852 42.2344 257.328 41.25C257.812 40.2578 258.484 39.4844 259.344 38.9297C260.211 38.3672 261.148 38.0859 262.156 38.0859C263.805 38.0859 265.086 38.6289 266 39.7148C266.914 40.8008 267.371 42.3555 267.371 44.3789V45.2812H258.781C258.812 46.5312 259.176 47.543 259.871 48.3164C260.574 49.082 261.465 49.4648 262.543 49.4648C263.309 49.4648 263.957 49.3086 264.488 48.9961C265.02 48.6836 265.484 48.2695 265.883 47.7539L267.207 48.7852C266.145 50.418 264.551 51.2344 262.426 51.2344ZM262.156 39.8672C261.281 39.8672 260.547 40.1875 259.953 40.8281C259.359 41.4609 258.992 42.3516 258.852 43.5H265.203V43.3359C265.141 42.2344 264.844 41.3828 264.312 40.7812C263.781 40.1719 263.062 39.8672 262.156 39.8672ZM276.02 40.2656C275.691 40.2109 275.336 40.1836 274.953 40.1836C273.531 40.1836 272.566 40.7891 272.059 42V51H269.891V38.3203H272L272.035 39.7852C272.746 38.6523 273.754 38.0859 275.059 38.0859C275.48 38.0859 275.801 38.1406 276.02 38.25V40.2656Z" fill="black"/>
<path d="M22.0879 41.542C22.0879 43.4463 21.7627 44.8613 21.1123 45.7871C20.4619 46.7129 19.4453 47.1758 18.0625 47.1758C16.6973 47.1758 15.6865 46.7246 15.0303 45.8223C14.374 44.9141 14.0342 43.5605 14.0107 41.7617V39.5908C14.0107 37.71 14.3359 36.3125 14.9863 35.3984C15.6367 34.4844 16.6562 34.0273 18.0449 34.0273C19.4219 34.0273 20.4355 34.4697 21.0859 35.3545C21.7363 36.2334 22.0703 37.5928 22.0879 39.4326V41.542ZM20.4619 39.3184C20.4619 37.9414 20.2686 36.9395 19.8818 36.3125C19.4951 35.6797 18.8828 35.3633 18.0449 35.3633C17.2129 35.3633 16.6064 35.6768 16.2256 36.3037C15.8447 36.9307 15.6484 37.8945 15.6367 39.1953V41.7969C15.6367 43.1797 15.8359 44.2021 16.2344 44.8643C16.6387 45.5205 17.248 45.8486 18.0625 45.8486C18.8652 45.8486 19.46 45.5381 19.8467 44.917C20.2393 44.2959 20.4443 43.3174 20.4619 41.9814V39.3184ZM32.5557 47H24.1709V45.8311L28.6006 40.9092C29.2568 40.165 29.708 39.5615 29.9541 39.0986C30.2061 38.6299 30.332 38.1465 30.332 37.6484C30.332 36.9805 30.1299 36.4326 29.7256 36.0049C29.3213 35.5771 28.7822 35.3633 28.1084 35.3633C27.2998 35.3633 26.6699 35.5947 26.2188 36.0576C25.7734 36.5146 25.5508 37.1533 25.5508 37.9736H23.9248C23.9248 36.7959 24.3027 35.8438 25.0586 35.1172C25.8203 34.3906 26.8369 34.0273 28.1084 34.0273C29.2979 34.0273 30.2383 34.3408 30.9297 34.9678C31.6211 35.5889 31.9668 36.418 31.9668 37.4551C31.9668 38.7148 31.1641 40.2148 29.5586 41.9551L26.1309 45.6729H32.5557V47ZM41.1426 42.7021H42.918V44.0293H41.1426V47H39.5078V44.0293H33.6807V43.0713L39.4111 34.2031H41.1426V42.7021ZM35.5264 42.7021H39.5078V36.4268L39.3145 36.7783L35.5264 42.7021Z" fill="black"/>
<path d="M27.5 73L40.9234 55.75H14.0766L27.5 73Z" fill="#FD8936"/>
<path d="M28 7L40.9904 24.25H15.0096L28 7Z" fill="#495BFF"/>
</svg>
