<svg width="332" height="81" viewBox="0 0 332 81" fill="none" xmlns="http://www.w3.org/2000/svg">
<path d="M331.5 0.5H0.5V80.5H331.5V0.5Z" fill="#F1EBEB" stroke="#FD8936"/>
<path d="M72.2422 49.16H80.3281V51H69.9805V33.938H72.2422V49.16ZM92.551 46.547H85.4023L83.7969 51H81.4766L87.9922 33.938H89.961L96.488 51H94.18L92.551 46.547ZM86.082 44.695H91.883L88.9766 36.715L86.082 44.695ZM101.047 49.16H109.133V51H98.785V33.938H101.047V49.16ZM121.355 46.547H114.207L112.602 51H110.281L116.797 33.938H118.766L125.293 51H122.984L121.355 46.547ZM114.887 44.695H120.688L117.781 36.715L114.887 44.695ZM135.805 49.16H143.891V51H133.543V33.938H135.805V49.16ZM156.113 46.547H148.965L147.359 51H145.039L151.555 33.938H153.523L160.051 51H157.742L156.113 46.547ZM149.645 44.695H155.445L152.539 36.715L149.645 44.695ZM164.609 49.16H172.695V51H162.348V33.938H164.609V49.16ZM184.918 46.547H177.77L176.164 51H173.844L180.359 33.938H182.328L188.855 51H186.547L184.918 46.547ZM178.449 44.695H184.25L181.344 36.715L178.449 44.695ZM193.414 49.16H201.5V51H191.152V33.938H193.414V49.16ZM213.723 46.547H206.574L204.969 51H202.648L209.164 33.938H211.133L217.66 51H215.352L213.723 46.547ZM207.254 44.695H213.055L210.148 36.715L207.254 44.695ZM222.219 49.16H230.305V51H219.957V33.938H222.219V49.16ZM242.527 46.547H235.379L233.773 51H231.453L237.969 33.938H239.938L246.465 51H244.156L242.527 46.547ZM236.059 44.695H241.859L238.953 36.715L236.059 44.695ZM251.023 49.16H259.109V51H248.762V33.938H251.023V49.16ZM271.332 46.547H264.184L262.578 51H260.258L266.773 33.938H268.742L275.27 51H272.961L271.332 46.547ZM264.863 44.695H270.664L267.758 36.715L264.863 44.695Z" fill="black"/>
<path d="M22.0879 41.542C22.0879 43.446 21.7627 44.861 21.1123 45.787C20.4619 46.713 19.4453 47.176 18.0625 47.176C16.6973 47.176 15.6865 46.725 15.0303 45.822C14.374 44.914 14.0342 43.561 14.0107 41.762V39.591C14.0107 37.71 14.3359 36.312 14.9863 35.398C15.6367 34.484 16.6562 34.027 18.0449 34.027C19.4219 34.027 20.4355 34.47 21.0859 35.354C21.7363 36.233 22.0703 37.593 22.0879 39.433V41.542ZM20.4619 39.318C20.4619 37.941 20.2686 36.939 19.8818 36.312C19.4951 35.68 18.8828 35.363 18.0449 35.363C17.2129 35.363 16.6064 35.677 16.2256 36.304C15.8447 36.931 15.6484 37.895 15.6367 39.195V41.797C15.6367 43.18 15.8359 44.202 16.2344 44.864C16.6387 45.521 17.248 45.849 18.0625 45.849C18.8652 45.849 19.46 45.538 19.8467 44.917C20.2393 44.296 20.4443 43.317 20.4619 41.981V39.318ZM32.1953 41.542C32.1953 43.446 31.8701 44.861 31.2197 45.787C30.5693 46.713 29.5527 47.176 28.1699 47.176C26.8047 47.176 25.7939 46.725 25.1377 45.822C24.4814 44.914 24.1416 43.561 24.1182 41.762V39.591C24.1182 37.71 24.4434 36.312 25.0938 35.398C25.7441 34.484 26.7637 34.027 28.1523 34.027C29.5293 34.027 30.543 34.47 31.1934 35.354C31.8438 36.233 32.1777 37.593 32.1953 39.433V41.542ZM30.5693 39.318C30.5693 37.941 30.376 36.939 29.9893 36.312C29.6025 35.68 28.9902 35.363 28.1523 35.363C27.3203 35.363 26.7139 35.677 26.333 36.304C25.9521 36.931 25.7559 37.895 25.7441 39.195V41.797C25.7441 43.18 25.9434 44.202 26.3418 44.864C26.7461 45.521 27.3555 45.849 28.1699 45.849C28.9727 45.849 29.5674 45.538 29.9541 44.917C30.3467 44.296 30.5518 43.317 30.5693 41.981V39.318ZM39.6221 47H37.9873V36.163L34.709 37.367V35.891L39.3672 34.142H39.6221V47Z" fill="black"/>
<path d="M27.5 73L40.9234 55.75H14.0766L27.5 73Z" fill="#FD8936"/>
<path d="M28 7L40.9904 24.25H15.0096L28 7Z" fill="#495BFF"/>
</svg>
