<svg width="177" height="216" viewBox="0 0 177 216" fill="none" xmlns="http://www.w3.org/2000/svg">
<path d="M49.177 124.652C46.0892 121.721 44.9768 120.358 44.9768 119.506C44.9768 118.629 46.67 116.694 51.9604 111.525L58.9441 104.702L62.9685 104.969C65.182 105.117 68.5081 105.357 70.3599 105.504L73.7269 105.77L64.3144 114.55C59.1375 119.379 54.6008 123.493 54.2328 123.693C53.7847 123.937 52.537 123.303 50.4539 121.773C48.7435 120.517 47.3441 119.672 47.3441 119.894C47.3441 120.116 48.6506 121.565 50.2475 123.115C52.1439 124.954 53.4656 125.883 54.0581 125.792C54.5571 125.716 59.6074 121.142 65.2811 115.629C74.8838 106.298 75.7018 105.615 77.1137 105.754C78.5954 105.9 78.3593 106.166 66.8716 117.271C60.079 123.838 54.7463 128.639 54.245 128.639C53.7677 128.639 51.4871 126.845 49.177 124.652ZM121.915 128.188C121.394 127.972 115.856 122.818 109.609 116.735C98.625 106.04 98.3021 105.674 99.8481 105.674C101.301 105.674 102.4 106.6 111.853 115.779C117.576 121.336 122.512 125.883 122.822 125.883C124.147 125.883 129.727 120.912 129.727 119.732C129.727 119.599 128.328 120.517 126.618 121.773C124.623 123.237 123.28 123.931 122.872 123.707C122.181 123.327 117.45 119.007 108.853 110.908L103.366 105.738L106.722 105.487C108.568 105.349 111.89 105.113 114.103 104.964L118.127 104.693L125.111 111.558C130.266 116.625 132.095 118.716 132.095 119.544C132.095 120.348 130.909 121.79 127.894 124.652C125.584 126.845 123.507 128.626 123.278 128.61C123.049 128.594 122.436 128.404 121.915 128.188ZM70.3073 102.177C52.1527 101.101 42.5483 99.3893 39.5514 96.6949C38.3253 95.5926 38.2541 95.3235 38.4397 92.4959C38.6093 89.9116 38.8224 89.3209 39.9135 88.4104C41.0983 87.4218 41.189 87.088 41.189 83.7182C41.189 78.9215 41.7781 77.3932 44.0628 76.2626C47.3052 74.6579 57.0903 72.8653 67.5455 71.9606L70.4654 71.7079L71.881 74.5675C72.6595 76.1403 74.0505 78.1764 74.9719 79.0922L76.6473 80.7573L72.2936 81.0792C62.8309 81.7789 54.161 83.1777 47.6539 85.0544C44.0176 86.1032 43.6936 86.7627 47.2002 85.9779C51.0001 85.1276 59.8986 84.1573 68.8869 83.6134C80.5708 82.9062 79.8526 83.2057 76.9167 80.2652C73.5699 76.9133 72.293 73.6159 72.5271 68.9301C72.8336 62.7978 76.126 57.9452 81.7231 55.3765C88.96 52.0554 97.4419 54.4529 102.05 61.122C103.885 63.7777 103.855 62.8099 101.994 59.2848C101.363 58.0897 100.559 55.1351 100.087 52.2793C99.6376 49.563 99.2149 47.3943 99.1474 47.4598C99.0797 47.5254 98.9646 49.2828 98.8914 51.3651C98.7666 54.9165 98.469 55.7915 97.7628 54.6831C97.2178 53.8276 93.071 52.0509 90.344 51.5045C87.2214 50.8788 82.8417 51.4549 79.989 52.8667L78.256 53.7244L77.9539 49.9596C77.7876 47.889 77.6504 45.023 77.6488 43.5909L77.6464 40.9869L76.0121 41.4247C70.6318 42.8658 63.6023 47.1804 59.2966 51.6844C55.9175 55.2192 52.8896 60.1288 51.3566 64.559C49.7128 69.3093 49.9095 69.7981 51.7867 65.6273C55.2841 57.8566 61.3577 51.6695 69.2477 47.8399C74.9127 45.0903 77.2122 44.4791 76.9276 45.7988C76.8262 46.2692 76.3978 48.411 75.9756 50.5582C75.4459 53.2521 74.4733 55.9017 72.838 59.1062C70.7915 63.1163 70.4571 64.1592 70.3878 66.747L70.3076 69.7439L65.573 70.0576C59.6824 70.4478 50.5481 71.5657 48.1252 72.1929C47.1224 72.4525 46.193 72.5591 46.0598 72.4299C45.588 71.9723 47.3846 65.4367 48.9157 62.0406C53.7226 51.3784 62.9821 42.95 74.1306 39.0889C76.6032 38.2325 77.0892 37.8712 77.5955 36.513C78.5895 33.8466 80.0963 33.4207 88.5361 33.4207C96.987 33.4207 98.5073 33.8495 99.4044 36.4864C99.8773 37.8764 100.313 38.1803 103.392 39.2698C116.829 44.0239 127.475 55.7416 130.503 69.1114C130.939 71.0377 131.18 72.7269 131.037 72.8651C130.895 73.0033 128.544 72.7945 125.813 72.4011C120.186 71.5907 112.487 71.429 113.63 72.1452C114.021 72.3901 115.218 72.5936 116.29 72.5975C121.856 72.6175 131.803 75.1689 134.109 77.1681C135.573 78.4368 135.613 78.5754 135.801 83.1142C135.906 85.6701 136.184 87.7613 136.418 87.7613C137.424 87.7613 138.72 90.8094 138.722 93.179C138.723 95.1285 138.5 95.8277 137.599 96.7025C135.527 98.7117 127.461 100.545 116.234 101.559C110.749 102.054 76.1035 102.52 70.3076 102.177H70.3073ZM57.7604 94.8815C69.794 93.6209 87.4234 93.1448 101.194 93.7086C112.895 94.1876 119.587 94.6625 124.993 95.3974C128.03 95.8104 127.018 95.1243 123.48 94.3719C104.862 90.4128 65.6174 90.688 51.9272 94.8735C49.3033 95.6757 50.168 95.6769 57.7604 94.8813V94.8815ZM133.287 86.3976C132.724 85.5139 125.386 83.6399 120.391 83.1042C116.713 82.7098 114.757 82.6932 113.393 83.0448L111.499 83.5327L113.543 83.5802C117.121 83.6633 131.156 85.9272 133.425 86.7873C133.505 86.8178 133.443 86.6424 133.287 86.3976V86.3976ZM97.911 84.276C99.2635 83.6222 101.124 82.2327 102.046 81.1881C103.886 79.1026 105.256 75.3028 105.013 72.9585C104.866 71.5485 104.806 71.6166 104.031 74.0667C102.532 78.8034 97.8736 83.3265 93.0789 84.6997L90.6664 85.3907L93.0591 85.4278C94.7422 85.4539 96.1812 85.1123 97.911 84.2761V84.276ZM91.522 80.8449C99.8883 78.7959 103.268 68.3984 97.6415 62.0213C95.4987 59.5929 92.7754 58.2957 89.2427 58.0206C82.4054 57.4882 76.6692 62.6799 76.6359 69.4308C76.5973 77.2586 83.7554 82.7471 91.522 80.8449ZM86.0984 78.8793C84.4866 78.2982 81.3846 76.2789 82.1036 76.2789C82.2819 76.2789 83.003 76.5613 83.7062 76.9064C88.3163 79.1693 93.8185 77.4234 96.1702 72.9516C97.2843 70.8332 97.4919 67.3594 96.601 65.7445C96.2894 65.1798 96.1545 64.6013 96.3012 64.4591C96.8212 63.9546 98.4574 68.2692 98.4321 70.0783C98.3448 76.3395 91.8694 80.9602 86.0984 78.8793ZM79.5485 68.3377C79.5263 65.0304 83.0375 61.4702 86.8786 60.9052L88.7725 60.6266L86.6419 61.7771C83.4152 63.5194 82.5428 64.3394 80.9856 67.0929C79.7233 69.3251 79.556 69.4699 79.5485 68.3377ZM121.139 56.4142C116.871 50.499 109.71 45.1371 102.29 42.2997L99.899 41.3856V42.4482C99.899 43.3582 100.47 43.7213 103.877 44.9766C109.178 46.93 114.456 50.3467 118.554 54.4775C120.403 56.3406 121.983 57.8744 122.066 57.886C122.149 57.8975 121.732 57.2352 121.139 56.4142ZM83.3702 38.1351C84.2582 37.8824 87.7105 37.545 91.0419 37.3852C96.2185 37.137 97.078 36.9888 96.9545 36.3664C96.7583 35.3785 94.8882 35.0586 89.0092 35.0073C83.6561 34.9606 80.584 35.4335 79.9513 36.4015C79.733 36.7356 79.5511 37.82 79.5471 38.8113L79.5399 40.6137L80.6477 39.6041C81.257 39.0488 82.4821 38.3877 83.3701 38.1351H83.3702ZM8.05518e-06 73.6981C-0.00350913 69.217 1.14494 63.1994 3.10162 57.4476C5.24896 51.1354 10.6089 40.7553 14.2266 35.9029C16.6938 32.5936 17.1291 31.7091 17.2684 29.7214C17.3725 28.2373 17.1905 27.0685 16.7632 26.4767C16.3958 25.9679 16.0953 25.2729 16.0953 24.9322C16.0953 24.5915 17.9444 22.4673 20.2044 20.2118C23.3747 17.0477 24.6054 16.1108 25.5913 16.1108C26.2941 16.1108 27.1122 16.395 27.4094 16.7424C27.7859 17.1824 28.6289 17.3049 30.1898 17.1462C31.972 16.9651 33.4945 16.2309 37.638 13.5547C49.5991 5.8294 62.9942 1.07585 75.0419 0.281103L79.3031 0L72.7699 3.19654C69.1767 4.95464 63.8502 7.93638 60.9332 9.82263C55.5048 13.333 46.3717 20.6489 43.6136 23.6962C42.11 25.3574 42.0797 25.4748 42.3876 28.4484L42.7032 31.4973L49.779 38.4122L56.8548 45.3272L55.8667 46.1947C54.8828 47.0585 54.8485 47.0331 47.8798 40.2842C42.2508 34.8328 40.776 33.629 40.3442 34.1338C39.9168 34.6332 41.2506 36.1591 46.8802 41.6111L53.9531 48.4609L52.8405 49.6243C51.626 50.8944 48.5116 55.2441 48.1492 56.1766C48.0159 56.5194 44.6857 53.6429 40.0491 49.1803C34.7429 44.0732 31.892 41.645 31.3068 41.7341C30.8291 41.8069 29.5687 41.6769 28.5059 41.4452C25.9198 40.8816 24.8153 41.5751 19.9975 46.7877C12.9384 54.4251 8.05973 61.3942 3.21052 70.7673L0.00263331 76.9678L0.000289812 73.6981H8.05518e-06ZM7.39993 54.8649C9.73515 50.45 15.6992 41.4114 18.3467 38.2751L19.9917 36.3263L21.7129 37.6239C24.8057 39.9557 24.9037 39.7125 22.0276 36.8425C19.347 34.1677 19.1593 34.0634 18.3979 34.8264C15.4949 37.7357 8.28664 50.1438 5.84949 56.4269C4.32943 60.3457 4.6965 59.9758 7.39993 54.8649ZM36.0517 35.5426C39.594 32.1563 41.189 30.3075 41.189 29.5877C41.189 28.4707 39.915 26.8825 35.0757 21.9668C30.8073 17.631 30.5979 17.6633 24.4067 23.6114C19.7787 28.0575 18.4047 30.062 19.166 31.2569C19.3634 31.5668 19.8666 31.2703 20.4858 30.4793C22.645 27.7209 29.0597 22.0817 30.0383 22.0817C30.6308 22.0817 32.0174 23.0692 33.4238 24.493C37.6357 28.7569 38.8107 30.2965 38.506 31.1525C38.3486 31.5947 36.2821 33.8684 33.9138 36.2051C31.5455 38.5418 29.9017 40.4536 30.261 40.4536C30.6203 40.4536 33.2261 38.2436 36.0517 35.5426ZM22.7235 22.3857C25.2549 20.0615 26.0058 19.1109 25.6121 18.729C25.2184 18.3471 24.22 19.0409 21.7714 21.398C19.9516 23.1499 18.4626 24.8643 18.4626 25.2079C18.4626 26.1574 19.0118 25.7936 22.7235 22.3857ZM39.7392 18.701C44.8437 14.8191 52.8623 10.0007 59.4175 6.87623C63.0632 5.13853 65.7967 3.71519 65.492 3.71326C64.3153 3.70549 56.3388 6.66743 51.3686 8.95715C46.1782 11.3483 38.9135 15.5182 36.2202 17.6522C34.8173 18.7637 34.8118 18.7858 35.7017 19.7397C36.1964 20.2699 36.7146 20.7038 36.8534 20.7038C36.9921 20.7038 38.2907 19.8025 39.7392 18.701ZM173.832 70.7391C172.179 67.4655 169.168 62.3606 167.141 59.395C163.391 53.9092 155.812 44.9424 152.957 42.6141C151.489 41.4165 151.158 41.3437 148.063 41.536L144.744 41.7421L137.07 49.1768L129.395 56.6115L127.372 53.6996C126.259 52.0981 124.847 50.2642 124.234 49.6243L123.118 48.4609L130.191 41.6111C135.821 36.1591 137.155 34.6332 136.727 34.1338C136.296 33.6291 134.817 34.8361 129.175 40.3006C122.165 47.0897 122.158 47.0942 121.214 46.1784C120.27 45.2626 120.275 45.2567 127.305 38.4557L134.339 31.6496L134.656 28.65C135.044 24.9817 134.912 24.7586 129.64 20.119C121.311 12.7899 113.983 7.91171 104.16 3.15611C97.0672 -0.277703 97.126 -0.439808 105.12 0.514172C116.373 1.85725 129.439 6.91725 140.577 14.2456C143.736 16.3244 145.147 16.9714 146.912 17.1504C148.481 17.3094 149.386 17.1842 149.838 16.7457C150.198 16.3965 150.912 16.1108 151.426 16.1108C152.49 16.1108 160.976 23.939 160.976 24.9201C160.976 25.2675 160.676 25.9679 160.308 26.4767C159.881 27.0685 159.699 28.2373 159.803 29.7214C159.942 31.7038 160.382 32.6025 162.827 35.9029C170.966 46.8857 177.428 64.1518 176.978 73.7115L176.837 76.6911L173.832 70.7391ZM171.16 56.1948C169.635 52.2257 165.096 43.9791 161.81 39.2092C160.034 36.6301 158.411 34.4181 158.203 34.2934C157.995 34.1688 156.57 35.2972 155.036 36.8009C151.885 39.8892 151.824 40.2794 154.855 37.9525C156.376 36.7855 157.075 36.4972 157.518 36.8543C159.579 38.5132 168.132 51.4577 170.714 56.8251C171.931 59.356 172.219 58.9497 171.16 56.1948ZM147.246 40.2818C147.246 40.1874 145.348 38.3086 143.029 36.1069C140.709 33.9051 138.706 31.7114 138.576 31.2318C138.297 30.195 139.31 28.8084 143.165 24.9523C146.053 22.0635 147.276 21.5597 148.666 22.6867C149.057 23.0034 151.232 25.1317 153.5 27.4162C157.448 31.3934 158.135 31.7249 158.135 29.6505C158.135 29.3076 155.776 26.7409 152.893 23.9468C146.189 17.4506 146.322 17.4625 141.076 22.8854C136.317 27.8041 135.703 28.6747 136.049 30.0117C136.513 31.806 147.246 41.6503 147.246 40.2818ZM158.609 25.1696C158.609 24.8471 157.12 23.1499 155.3 21.398C152.79 18.9813 151.859 18.3414 151.442 18.7458C151.025 19.1501 151.738 20.0554 154.396 22.4981C157.984 25.7961 158.609 26.1922 158.609 25.1696ZM141.479 19.6429L142.507 18.582L137.974 15.6742C131.889 11.7702 124.009 7.8833 117.538 5.59368C111.143 3.33073 109.141 3.12337 114.143 5.24193C121.263 8.25773 132.066 14.5595 137.776 19.0276C138.948 19.9446 140.03 20.6969 140.18 20.6993C140.329 20.7015 140.914 20.2264 141.479 19.6429Z" fill="black"/>
<path d="M10.5163 167.063C10.4563 167.063 10.4014 167.018 10.3514 166.928C10.3014 166.837 10.2765 166.754 10.2765 166.676L12.0452 157.434C12.0852 157.279 12.1701 157.202 12.3 157.202H12.6598C12.7397 157.202 12.7997 157.241 12.8397 157.318C12.8896 157.396 12.9146 157.492 12.9146 157.608C12.7447 158.511 12.6598 159.316 12.6598 160.025C12.6598 161.933 13.1694 163.351 14.1887 164.279C15.208 165.207 16.4921 165.671 18.041 165.671C18.7106 165.671 19.3701 165.458 20.0196 165.033C20.6692 164.608 21.2338 164.053 21.7135 163.37C22.2031 162.687 22.5928 161.926 22.8826 161.089C23.1724 160.238 23.3173 159.381 23.3173 158.517C23.3173 157.589 23.1275 156.764 22.7477 156.042C22.368 155.307 21.8434 154.837 21.1738 154.631L17.4265 153.355C16.4172 153.007 15.6127 152.31 15.0131 151.266C14.4136 150.209 14.1138 149.023 14.1138 147.709C14.1138 146.123 14.4785 144.596 15.208 143.126C15.9375 141.657 16.8868 140.484 18.056 139.607C19.2352 138.718 20.4344 138.273 21.6535 138.273C22.5928 138.273 23.4522 138.499 24.2317 138.95C25.0211 139.388 25.6257 140.091 26.0454 141.057L27.7992 138.389C27.9191 138.312 27.9891 138.273 28.0091 138.273H28.2039C28.2839 138.273 28.3488 138.318 28.3988 138.409C28.4488 138.499 28.4737 138.589 28.4737 138.679L26.69 147.863C26.66 148.044 26.5801 148.134 26.4501 148.134H26.0754C25.8955 148.134 25.8056 147.992 25.8056 147.709C25.9055 146.871 25.9555 146.143 25.9555 145.524C25.9555 144.299 25.7906 143.236 25.4608 142.334C25.1411 141.418 24.6514 140.729 23.9919 140.265C23.3423 139.788 22.5329 139.549 21.5636 139.549C20.7441 139.549 19.9297 139.852 19.1203 140.458C18.3108 141.064 17.6563 141.869 17.1566 142.875C16.657 143.88 16.4072 144.924 16.4072 146.007C16.4072 146.858 16.597 147.612 16.9768 148.269C17.3665 148.927 17.8811 149.371 18.5207 149.603L22.2681 150.86C22.9476 151.092 23.5372 151.505 24.0368 152.098C24.5465 152.678 24.9312 153.374 25.191 154.186C25.4508 154.985 25.5808 155.862 25.5808 156.815C25.5808 158.066 25.3759 159.303 24.9662 160.528C24.5565 161.739 23.9819 162.848 23.2424 163.853C22.5129 164.859 21.6835 165.645 20.7541 166.212C19.8248 166.779 18.8754 167.063 17.9061 167.063C15.4678 167.063 13.719 166.141 12.6598 164.298L10.951 166.947C10.8311 167.024 10.7561 167.063 10.7261 167.063L10.5163 167.063Z" fill="black"/>
<path d="M28.8485 166.193C28.6486 166.193 28.5487 166.019 28.5487 165.671C28.6286 165.091 28.7585 164.801 28.9384 164.801C29.7678 164.801 30.4823 164.588 31.0819 164.163C31.6915 163.737 32.2161 163.08 32.6558 162.191C32.6958 162.139 32.7158 162.113 32.7158 162.113L43.6731 138.273C43.833 137.99 44.0279 137.848 44.2577 137.848H44.6624C44.7224 137.848 44.7823 137.867 44.8423 137.906C44.9022 137.932 44.9522 137.983 44.9922 138.061C45.0421 138.125 45.0671 138.196 45.0671 138.273L46.9258 163.853C46.9258 163.969 46.9708 164.143 47.0607 164.375C47.2606 164.659 48.0251 164.801 49.3541 164.801C49.564 164.801 49.6689 164.975 49.6689 165.323C49.599 165.671 49.539 165.903 49.489 166.019C49.4491 166.135 49.3341 166.193 49.1443 166.193H41.4696C41.2798 166.193 41.1848 166.019 41.1848 165.671C41.2948 165.091 41.4297 164.801 41.5896 164.801C43.2084 164.801 44.0678 164.446 44.1678 163.737L43.7031 157.202H36.1334L33.6751 162.519C33.5252 162.803 33.4502 163.132 33.4502 163.505C33.4502 163.969 33.6201 164.305 33.9599 164.511C34.3096 164.704 34.6944 164.801 35.1141 164.801C35.3139 164.801 35.4139 164.975 35.4139 165.323C35.3439 165.697 35.289 165.935 35.249 166.038C35.209 166.141 35.0941 166.193 34.9042 166.193L28.8485 166.193ZM36.733 155.81H43.5832L42.6688 142.991L36.733 155.81Z" fill="black"/>
<path d="M51.9323 166.193C51.7325 166.193 51.6325 166.019 51.6325 165.671C51.6425 165.606 51.6625 165.497 51.6925 165.342C51.7225 165.175 51.7625 165.046 51.8124 164.955C51.8724 164.852 51.9423 164.801 52.0223 164.801C53.2714 164.801 54.1408 164.711 54.6304 164.53C54.9003 164.414 55.0951 164.06 55.215 163.467L59.4271 141.715C59.4671 141.457 59.487 141.277 59.487 141.173C59.487 140.89 59.3621 140.729 59.1123 140.69C58.7326 140.587 57.9981 140.535 56.9088 140.535C56.709 140.535 56.6091 140.361 56.6091 140.013C56.679 139.678 56.734 139.453 56.7739 139.337C56.8139 139.208 56.9288 139.143 57.1187 139.143H66.1874C66.3672 139.143 66.4572 139.317 66.4572 139.665C66.4272 139.936 66.3922 140.149 66.3523 140.303C66.3123 140.458 66.2123 140.535 66.0525 140.535C64.5435 140.535 63.5342 140.6 63.0246 140.729C62.5249 140.845 62.2151 141.231 62.0952 141.889L57.8982 163.621C57.8082 163.944 57.7633 164.234 57.7633 164.491C57.7633 164.698 58.113 164.801 58.8125 164.801H61.6605C63.2694 164.801 64.5735 164.388 65.5728 163.563C66.5721 162.738 67.3116 161.81 67.7912 160.779C68.2709 159.735 68.6706 158.659 68.9904 157.55C69.3202 156.429 69.56 155.849 69.7099 155.81H69.9797C70.1896 155.81 70.2945 155.984 70.2945 156.332L67.5664 165.922C67.5364 166.103 67.4415 166.193 67.2816 166.193H51.9323Z" fill="black"/>
<path d="M72.7678 165.671C72.7778 165.606 72.7978 165.49 72.8277 165.323C72.8677 165.155 72.9127 165.026 72.9626 164.936C73.0226 164.846 73.1025 164.801 73.2025 164.801C74.9612 164.801 76.1254 164.736 76.695 164.607C77.2446 164.427 77.5744 164.047 77.6843 163.467L81.8814 141.715C81.9713 141.393 82.0163 141.103 82.0163 140.845C82.0163 140.638 81.6566 140.535 80.9371 140.535H79.1533C77.7843 140.535 76.725 140.806 75.9755 141.347C75.236 141.889 74.6914 142.604 74.3417 143.494C73.9919 144.383 73.5422 145.84 72.9926 147.863C72.9227 148.095 72.8177 148.211 72.6778 148.211H72.408C72.1982 148.211 72.0932 148.044 72.0932 147.709L74.2817 139.511C74.3217 139.266 74.4216 139.143 74.5815 139.143H92.7188C92.9287 139.143 93.0336 139.317 93.0336 139.665L92.0143 147.863C92.0143 147.941 91.9793 148.018 91.9094 148.095C91.8394 148.173 91.7745 148.211 91.7145 148.211H91.4297C91.2299 148.211 91.1299 148.044 91.1299 147.709C91.3498 145.84 91.4597 144.518 91.4597 143.745C91.4597 142.817 91.3098 142.114 91.01 141.638C90.7102 141.161 90.3205 140.858 89.8408 140.729C89.3612 140.6 88.7366 140.535 87.9671 140.535H86.1534C85.6038 140.535 85.2341 140.6 85.0442 140.729C84.8543 140.858 84.6944 141.244 84.5645 141.889L80.3525 163.621C80.3425 163.673 80.3325 163.725 80.3225 163.776C80.3225 163.828 80.3125 163.892 80.2925 163.969C80.2925 164.305 80.4474 164.517 80.7572 164.608C81.2868 164.736 82.421 164.801 84.1598 164.801C84.3597 164.801 84.4596 164.975 84.4596 165.323C84.3896 165.697 84.3347 165.935 84.2947 166.038C84.2547 166.141 84.1398 166.193 83.95 166.193H73.0826C72.8727 166.193 72.7678 166.019 72.7678 165.671V165.671Z" fill="black"/>
<path d="M90.5753 166.193C90.3755 166.193 90.2755 166.019 90.2755 165.671C90.3555 165.091 90.4854 164.801 90.6653 164.801C91.8744 164.801 92.6938 164.749 93.1235 164.646C93.5932 164.504 93.888 164.111 94.0079 163.467L98.22 141.715C98.26 141.457 98.2799 141.289 98.2799 141.212C98.2799 141.045 98.245 140.929 98.175 140.864C98.115 140.787 98.0151 140.729 97.8752 140.69C97.4655 140.587 96.6911 140.535 95.5518 140.535C95.342 140.535 95.2371 140.361 95.2371 140.013C95.307 139.678 95.362 139.453 95.402 139.337C95.4419 139.208 95.5618 139.143 95.7617 139.143H104.336C104.536 139.143 104.635 139.317 104.635 139.665C104.626 139.73 104.606 139.839 104.576 139.994C104.546 140.149 104.506 140.278 104.456 140.381C104.406 140.484 104.331 140.535 104.231 140.535C103.032 140.535 102.202 140.587 101.743 140.69C101.293 140.832 101.008 141.231 100.888 141.889L96.691 163.621C96.6411 163.944 96.6161 164.118 96.6161 164.143C96.6161 164.208 96.6211 164.272 96.6311 164.337C96.651 164.388 96.681 164.44 96.7211 164.491C96.771 164.53 96.816 164.562 96.856 164.588C96.9059 164.601 96.9609 164.62 97.0209 164.646C97.4106 164.749 98.19 164.801 99.3592 164.801C99.5591 164.801 99.659 164.975 99.659 165.323C99.5891 165.697 99.5341 165.935 99.4941 166.038C99.4542 166.141 99.3342 166.193 99.1344 166.193H90.5753Z" fill="black"/>
<path d="M104.216 166.193C104.016 166.193 103.916 166.019 103.916 165.671C103.926 165.606 103.946 165.497 103.976 165.342C104.006 165.175 104.046 165.046 104.096 164.955C104.156 164.852 104.226 164.801 104.306 164.801C105.555 164.801 106.424 164.711 106.914 164.53C107.184 164.414 107.379 164.06 107.498 163.467L111.711 141.715C111.751 141.457 111.77 141.277 111.77 141.173C111.77 140.89 111.646 140.729 111.396 140.69C111.016 140.587 110.282 140.535 109.192 140.535C108.992 140.535 108.893 140.361 108.893 140.013C108.902 139.949 108.922 139.839 108.952 139.685C108.982 139.517 109.022 139.388 109.072 139.298C109.132 139.195 109.202 139.143 109.282 139.143H125.921C126.13 139.143 126.235 139.317 126.235 139.665L125.501 147.863C125.501 147.928 125.461 148.005 125.381 148.095C125.311 148.173 125.246 148.211 125.186 148.211H124.916C124.706 148.211 124.602 148.044 124.602 147.709C124.721 146.42 124.781 145.466 124.781 144.847C124.781 143.79 124.641 142.972 124.362 142.392C124.082 141.799 123.707 141.373 123.237 141.115C122.778 140.858 122.263 140.697 121.694 140.632C121.134 140.568 120.394 140.535 119.475 140.535H115.983C115.423 140.535 115.053 140.6 114.873 140.729C114.693 140.845 114.529 141.232 114.379 141.889L112.535 151.46H114.933C115.973 151.46 116.757 151.37 117.287 151.189C117.816 150.996 118.236 150.603 118.546 150.01C118.856 149.417 119.135 148.476 119.385 147.187C119.405 147.096 119.44 147.019 119.49 146.955C119.55 146.877 119.615 146.839 119.685 146.839H119.97C120.17 146.839 120.27 147.006 120.27 147.341L118.366 157.125C118.326 157.357 118.226 157.473 118.066 157.473H117.781C117.581 157.473 117.481 157.305 117.481 156.97C117.681 155.913 117.781 155.133 117.781 154.631C117.781 153.857 117.511 153.367 116.972 153.161C116.432 152.955 115.713 152.852 114.813 152.852H112.265L110.182 163.621C110.092 163.944 110.047 164.234 110.047 164.491C110.047 164.698 110.396 164.801 111.096 164.801H114.813C116.292 164.801 117.491 164.653 118.411 164.356C119.33 164.06 120.09 163.589 120.689 162.945C121.299 162.287 121.823 161.456 122.263 160.45C122.703 159.445 123.237 157.982 123.867 156.061C123.907 155.894 123.997 155.81 124.137 155.81H124.422C124.502 155.81 124.572 155.855 124.631 155.945C124.691 156.036 124.721 156.139 124.721 156.255C124.721 156.306 124.711 156.358 124.692 156.409L121.529 165.961C121.489 166.116 121.409 166.193 121.289 166.193L104.216 166.193Z" fill="black"/>
<path d="M127.315 167.063C127.255 167.063 127.2 167.018 127.15 166.928C127.1 166.837 127.075 166.754 127.075 166.676L128.844 157.434C128.884 157.279 128.969 157.202 129.098 157.202H129.458C129.538 157.202 129.598 157.241 129.638 157.318C129.688 157.396 129.713 157.492 129.713 157.608C129.543 158.511 129.458 159.316 129.458 160.025C129.458 161.933 129.968 163.351 130.987 164.279C132.006 165.207 133.29 165.671 134.839 165.671C135.509 165.671 136.168 165.458 136.818 165.033C137.468 164.608 138.032 164.053 138.512 163.37C139.001 162.687 139.391 161.926 139.681 161.089C139.971 160.238 140.116 159.381 140.116 158.517C140.116 157.589 139.926 156.764 139.546 156.042C139.166 155.307 138.642 154.837 137.972 154.631L134.225 153.355C133.216 153.007 132.411 152.31 131.812 151.266C131.212 150.209 130.912 149.023 130.912 147.709C130.912 146.123 131.277 144.596 132.006 143.126C132.736 141.657 133.685 140.484 134.854 139.607C136.034 138.718 137.233 138.273 138.452 138.273C139.391 138.273 140.251 138.499 141.03 138.95C141.82 139.388 142.424 140.091 142.844 141.057L144.598 138.389C144.717 138.312 144.787 138.273 144.807 138.273H145.002C145.082 138.273 145.147 138.318 145.197 138.409C145.247 138.499 145.272 138.589 145.272 138.679L143.488 147.863C143.458 148.044 143.378 148.134 143.248 148.134H142.874C142.694 148.134 142.604 147.992 142.604 147.709C142.704 146.871 142.754 146.143 142.754 145.524C142.754 144.299 142.589 143.236 142.259 142.334C141.939 141.418 141.45 140.729 140.79 140.265C140.141 139.788 139.331 139.549 138.362 139.549C137.542 139.549 136.728 139.852 135.919 140.458C135.109 141.064 134.455 141.869 133.955 142.875C133.455 143.88 133.206 144.924 133.206 146.007C133.206 146.858 133.395 147.612 133.775 148.269C134.165 148.927 134.679 149.371 135.319 149.603L139.066 150.86C139.746 151.092 140.336 151.505 140.835 152.098C141.345 152.678 141.73 153.374 141.989 154.186C142.249 154.985 142.379 155.862 142.379 156.815C142.379 158.066 142.174 159.303 141.765 160.528C141.355 161.739 140.78 162.848 140.041 163.853C139.311 164.859 138.482 165.645 137.552 166.212C136.623 166.779 135.674 167.063 134.704 167.063C132.266 167.063 130.517 166.141 129.458 164.298L127.749 166.947C127.629 167.024 127.554 167.063 127.524 167.063L127.315 167.063Z" fill="black"/>
<path d="M145.677 165.671C145.687 165.606 145.707 165.49 145.737 165.323C145.777 165.155 145.822 165.026 145.872 164.936C145.932 164.846 146.012 164.801 146.111 164.801C147.87 164.801 149.034 164.736 149.604 164.607C150.154 164.427 150.483 164.047 150.593 163.467L154.79 141.715C154.88 141.393 154.925 141.103 154.925 140.845C154.925 140.638 154.566 140.535 153.846 140.535H152.062C150.693 140.535 149.634 140.806 148.885 141.347C148.145 141.889 147.6 142.604 147.251 143.494C146.901 144.383 146.451 145.84 145.902 147.863C145.832 148.095 145.727 148.211 145.587 148.211H145.317C145.107 148.211 145.002 148.044 145.002 147.709L147.191 139.511C147.231 139.266 147.331 139.143 147.491 139.143H165.628C165.838 139.143 165.943 139.317 165.943 139.665L164.923 147.863C164.923 147.941 164.888 148.018 164.818 148.095C164.748 148.173 164.684 148.211 164.624 148.211H164.339C164.139 148.211 164.039 148.044 164.039 147.709C164.259 145.84 164.369 144.518 164.369 143.745C164.369 142.817 164.219 142.114 163.919 141.638C163.619 141.161 163.23 140.858 162.75 140.729C162.27 140.6 161.646 140.535 160.876 140.535H159.062C158.513 140.535 158.143 140.6 157.953 140.729C157.763 140.858 157.603 141.244 157.474 141.889L153.262 163.621C153.252 163.673 153.242 163.725 153.231 163.776C153.231 163.828 153.221 163.892 153.201 163.969C153.201 164.305 153.356 164.517 153.666 164.608C154.196 164.736 155.33 164.801 157.069 164.801C157.269 164.801 157.369 164.975 157.369 165.323C157.299 165.697 157.244 165.935 157.204 166.038C157.164 166.141 157.049 166.193 156.859 166.193H145.991C145.782 166.193 145.677 166.019 145.677 165.671L145.677 165.671Z" fill="black"/>
<path d="M38.3624 207.377H32.4534V195.232H23.1549V207.377H17.2758V179.291H23.1849V191.436H32.4834V179.291H38.3624V207.377Z" fill="black"/>
<path d="M62.3235 207.378H56.4144V199.268H47.1159V207.378H41.2068V191.397H44.2663V183.327H47.2959V179.292H56.2344V183.327H59.264V191.437H62.3235V207.378ZM56.2344 195.232V187.362H53.2049V183.327H50.3254V187.362H47.2959V195.232H56.2344Z" fill="black"/>
<path d="M86.2845 187.122H80.3754V183.087H71.0769V203.582H80.4054V199.507H86.2845V203.343H83.255V207.378H68.2274V203.303H65.1979V183.327H68.2274V179.292H83.255V183.327H86.2845V187.122Z" fill="black"/>
<path d="M110.246 207.377H101.307V203.302H98.2474L98.1874 199.267H95.0979L95.038 207.377H89.1589V179.291H95.0679L95.0979 187.281L98.2774 187.361V183.326H101.307V179.251H110.245V183.086H107.216V187.161H104.156V191.236L101.187 191.276L101.157 195.471H104.187V199.546H107.216V203.582H110.246L110.246 207.377Z" fill="black"/>
<path d="M134.207 207.378H113.12V179.292H134.207V183.087H119.029V191.437H131.177V195.232H118.999V203.582H134.207V207.378Z" fill="black"/>
<path d="M158.168 195.232H155.138V203.582H158.168V207.378H152.258V203.303H149.229V199.268H142.96V207.378H137.081V179.292H155.138V183.327H158.168V195.232ZM152.109 195.232V183.327H143.14V195.232H152.109Z" fill="black"/>
</svg>
